<?xml version="1.0" encoding="UTF-8"?><svg xmlns="http://www.w3.org/2000/svg" xmlns:xlink="http://www.w3.org/1999/xlink" viewBox="0 0 32 32" version="1.1"><path d="M22.605 2.973c-.324 0-.44.015-.585.027H22c-2.875 0-4 1-4 1 .008.008.02.012.027.02-.14-.008-.27-.02-.414-.024h-.035c-.887 0-1.746.14-2.555.387-.73-.387-1.878-.856-3.398-1.133A10.236 10.236 0 0 0 9.008 3H8.93c-1.516.055-3.239.293-4.5 1.672C3.34 5.859 2.87 7.637 3 10.105c.05.887.39 3.758 1.102 6.508C4.809 19.355 6.09 23 9 23c1.387 0 3.465-.39 4.992-1.266.004 0 .008-.004.008-.004.004.387.004.637 0 1.254 0 .051 0 .106.004.157l.047.64c.043.52.086 1.063.086 1.352 0 2.023 2.05 3.867 4.3 3.867C20.634 29 23 27.312 23 23.613v-1.57c.148-.004.383-.004.383-.004.742.04 1.719-.203 2.289-.508 1.23-.664 1.902-1.695.687-1.406-.586.14-1.023.18-1.394.184.851-.567 1.746-1.555 2.492-3.27 1.488-3.422 2.11-9.41.703-11.52-1.473-2.214-4.113-2.546-5.555-2.546zm0 2c.985 0 2.926.199 3.895 1.652 1.012 1.527.36 8.688-1.938 11.371.22-.414.38-1.027.438-1.996 0-.832-.047-3.617 0-4 .063-.52.02-1.45 0-2 .016-.074.016-.152.016-.242 0-.926-.332-1.738-.766-2.434a2.645 2.645 0 0 0-.117-.199c-.04-.059-.074-.117-.113-.172a5.893 5.893 0 0 0-1.235-1.34C22.344 5.227 22 5 22 5s.234-.027.605-.027zm-13.28.02c1.308 0 2.316.284 3.21.616-.113.082-.23.168-.336.258-.933.567-1.492 1.371-1.808 2.313A4.577 4.577 0 0 0 10 10c0 .074.012.145.02.219-.012.258-.02.52-.02.781v.02c0 .09.031.246.031.46 0 1.02-.031 3.23-.031 4.52 0 2.2 2.352 4.004 2.965 4.004.012 0 .023 0 .035-.004-1.168.668-2.918 1-4 1-2.652 0-3.914-9.363-4-11-.23-4.363 1.645-4.918 4-5 .11-.004.219-.008.324-.008zm8.253 1.003c1.754.027 2.969.457 3.797 1.05.344.282.79.716 1.145 1.259.34.605.48 1.218.48 1.695-1.258.105-2.305.16-2.77.898-1.058 1.688-.265 4.54.477 5.82.078.141.945.958 1.293 1.282.125.117-.46.277-.578.402-.336.348-.332 1.399-.402 2.582-.012.012-.02.016-.02.016s.004.11.012.262c-.004.113-.012.215-.012.336v2.015C21 26.125 19.602 27 18.437 27c-1.238 0-2.3-1.012-2.3-1.867 0-.504-.082-1.363-.137-2.133.012-1.777 0-2.422 0-3 0-.559-1-1-1-1 .125-.293.531-.89.531-.89.301-.758.461-1.477.469-3.11.004-.746-.098-1.559-.309-2.488-.289-1.27-1.25-2.5-2.691-2.512h-.953c.039-.406.101-.742.187-1.027.258-.59.73-1.145 1.336-1.614.14-.082.274-.164.387-.273a6.727 6.727 0 0 1 3.621-1.09zM12.028 12h.054c-.023.027-.05.05-.055.078 0-.023-.004-.055 0-.078zM23 12.008h.004c-.024.375-.031 1.015-.012 2.926.004.445.008.832.008 1.066 0 .086.012.129.02.203a26.96 26.96 0 0 1-.665-.637c-.37-.714-.62-1.754-.625-2.582.09.016.184.02.282.004.574-.078 1.015-.675.988-.898-.004-.031-.035-.05-.055-.074.02-.004.035-.008.055-.008zm-10.973.129c.008.246.422.785.973.863.27.04.504-.059.7-.18.01.043.03.09.038.133.18.777.266 1.445.262 2.04-.004 1.269-.113 1.784-.262 2.194-.144.227-.312.512-.453.782C12.828 17.649 12 16.789 12 16c0-.68.008-1.613.016-2.492l.011-1.371z" id="surface1"/><metadata><rdf:RDF xmlns:rdf="http://www.w3.org/1999/02/22-rdf-syntax-ns#" xmlns:rdfs="http://www.w3.org/2000/01/rdf-schema#" xmlns:dc="http://purl.org/dc/elements/1.1/"><rdf:Description about="https://iconscout.com/legal#licenses" dc:title="postgresql" dc:description="postgresql" dc:publisher="Iconscout" dc:date="2017-12-30" dc:format="image/svg+xml" dc:language="en"><dc:creator><rdf:Bag><rdf:li>Icons8</rdf:li></rdf:Bag></dc:creator></rdf:Description></rdf:RDF></metadata></svg>